<?xml version="1.0" encoding="UTF-8"?>
<svg id="Layer_1" data-name="Layer 1" xmlns="http://www.w3.org/2000/svg" xmlns:xlink="http://www.w3.org/1999/xlink" version="1.1" viewBox="0 0 31.9 32">
  <defs>
    <style>
      .cls-1 {
        fill: url(#linear-gradient);
        stroke: #231f20;
        stroke-miterlimit: 10;
        stroke-width: .2px;
      }
    </style>
    <linearGradient id="linear-gradient" x1=".1" y1="16" x2="31.8" y2="16" gradientUnits="userSpaceOnUse">
      <stop offset="0" stop-color="#11ffc3"/>
      <stop offset="1" stop-color="#fd00f9"/>
    </linearGradient>
  </defs>
  <path class="cls-1" d="M31.8,23.7c0,.1,0,.2,0,.4h-3.9c0-.1,0-.2,0-.3,0-2.1,0-4.2,0-6.4,0-.5,0-.9-.2-1.4-.3-.9-1.1-1.4-2.2-1.4-1.4,0-2.4.8-2.5,2.2,0,1.6,0,3.3,0,4.9,0,.8,0,1.6,0,2.4h-3.9c0-.1,0-.3,0-.4,0-2.2,0-4.3,0-6.5,0-.6,0-1.2-.4-1.7-.5-.8-1.3-1-2.1-1-1.4,0-2.3.9-2.3,2.3,0,2.3,0,4.5,0,6.8,0,.1,0,.2,0,.4h-3.9v-12.8h3.9v1.6c1.2-1.4,2.6-1.8,4.2-1.7,1.7.1,3,.9,3.9,2.3,0,0,.1-.1.2-.2.9-1.2,2-1.9,3.4-2.1,1.9-.2,3.6.2,4.9,1.7.6.7.9,1.5,1,2.4,0,.6.1,1.2.1,1.8,0,2.2,0,4.4,0,6.6ZM6.6,20.6c-.7,0-1-.3-1-1.1,0,0,0,0,0-.1,0-1.6,0-3.1,0-4.7v-.3h2.6v-3.3h-2.6v-3.1H1.7v3.1H.1v3.3h1.6c0,.2,0,.3,0,.4,0,1.5,0,3,0,4.6,0,.4,0,.9,0,1.3.2,1.6,1.1,2.7,2.7,3.1.5.1,1,.2,1.6.2.7,0,1.4,0,2.1,0v-3.3c-.5,0-1,0-1.5,0Z"/>
</svg>